<?xml version="1.0" encoding="UTF-8" standalone="no"?><!DOCTYPE svg PUBLIC "-//W3C//DTD SVG 1.1//EN" "http://www.w3.org/Graphics/SVG/1.1/DTD/svg11.dtd"><svg width="100%" height="100%" viewBox="0 0 256 256" version="1.1" xmlns="http://www.w3.org/2000/svg" xmlns:xlink="http://www.w3.org/1999/xlink" xml:space="preserve" xmlns:serif="http://www.serif.com/" style="fill-rule:evenodd;clip-rule:evenodd;stroke-linejoin:round;stroke-miterlimit:2;"><path d="M256,26.734c0,-14.755 -11.979,-26.734 -26.734,-26.734l-202.532,0c-14.755,0 -26.734,11.979 -26.734,26.734l0,202.532c0,14.755 11.979,26.734 26.734,26.734l202.532,0c14.755,0 26.734,-11.979 26.734,-26.734l0,-202.532Z" style="fill:#fffee6;"/><g><path d="M71.37,162.011l0,10.451l-58.538,0c-0.081,-2.618 0.342,-5.135 1.268,-7.551c1.491,-3.987 3.877,-7.914 7.159,-11.78c3.282,-3.866 8.025,-8.337 14.227,-13.411c9.625,-7.894 16.129,-14.146 19.512,-18.758c3.383,-4.611 5.075,-8.971 5.075,-13.079c0,-4.309 -1.541,-7.944 -4.621,-10.904c-3.081,-2.96 -7.099,-4.44 -12.052,-4.44c-5.236,0 -9.424,1.571 -12.566,4.712c-3.141,3.141 -4.732,7.491 -4.772,13.049l-11.176,-1.148c0.765,-8.337 3.645,-14.69 8.638,-19.06c4.994,-4.369 11.7,-6.554 20.117,-6.554c8.498,0 15.224,2.356 20.177,7.068c4.954,4.712 7.431,10.552 7.431,17.519c0,3.544 -0.725,7.028 -2.175,10.451c-1.45,3.423 -3.856,7.028 -7.219,10.813c-3.363,3.786 -8.951,8.982 -16.764,15.586c-6.524,5.478 -10.713,9.193 -12.565,11.146c-1.853,1.953 -3.383,3.917 -4.592,5.89l43.436,0Z" style="fill-rule:nonzero;"/><path d="M87.801,172.462l0,-88.562l11.72,0l0,36.367l46.033,0l0,-36.367l11.72,0l0,88.562l-11.72,0l0,-41.744l-46.033,0l0,41.744l-11.72,0Z" style="fill-rule:nonzero;"/><path d="M176.303,172.462l0,-88.562l33.226,0c6.766,0 12.193,0.896 16.281,2.688c4.088,1.793 7.289,4.551 9.605,8.277c2.316,3.725 3.474,7.622 3.474,11.689c0,3.786 -1.027,7.35 -3.081,10.693c-2.054,3.343 -5.155,6.041 -9.303,8.095c5.356,1.571 9.474,4.249 12.354,8.035c2.879,3.785 4.319,8.256 4.319,13.411c0,4.148 -0.876,8.004 -2.628,11.568c-1.752,3.565 -3.917,6.313 -6.494,8.246c-2.578,1.934 -5.81,3.394 -9.696,4.38c-3.886,0.987 -8.649,1.48 -14.287,1.48l-33.77,0Zm11.72,-51.349l19.15,0c5.195,0 8.921,-0.342 11.176,-1.027c2.98,-0.886 5.226,-2.356 6.736,-4.41c1.51,-2.054 2.265,-4.631 2.265,-7.732c0,-2.94 -0.705,-5.528 -2.114,-7.763c-1.41,-2.235 -3.423,-3.766 -6.041,-4.591c-2.618,-0.826 -7.109,-1.239 -13.472,-1.239l-17.7,0l0,26.762Zm0,40.898l22.05,0c3.786,0 6.444,-0.141 7.974,-0.423c2.698,-0.483 4.954,-1.288 6.766,-2.416c1.812,-1.128 3.302,-2.769 4.47,-4.924c1.168,-2.154 1.752,-4.641 1.752,-7.46c0,-3.303 -0.845,-6.172 -2.537,-8.609c-1.691,-2.436 -4.037,-4.148 -7.038,-5.135c-3,-0.986 -7.32,-1.48 -12.958,-1.48l-20.479,0l0,30.447Z" style="fill-rule:nonzero;"/></g></svg>