<?xml version="1.0" standalone="no"?>
<!DOCTYPE svg PUBLIC "-//W3C//DTD SVG 20010904//EN"
 "http://www.w3.org/TR/2001/REC-SVG-20010904/DTD/svg10.dtd">
<svg version="1.0" xmlns="http://www.w3.org/2000/svg"
 width="700.000000pt" height="700.000000pt" viewBox="0 0 700.000000 700.000000"
 preserveAspectRatio="xMidYMid meet">
<metadata>
Created by potrace 1.11, written by Peter Selinger 2001-2013
</metadata>
<g transform="translate(0.000000,700.000000) scale(0.100000,-0.100000)"
fill="#000000" stroke="none">
<path d="M1090 4710 c-276 -24 -479 -148 -589 -360 -43 -83 -77 -190 -87 -279
l-6 -57 150 -14 150 -15 7 55 c14 120 51 213 112 281 81 89 183 136 318 146
283 20 495 -159 495 -417 0 -113 -51 -243 -146 -370 -74 -98 -248 -266 -470
-454 -309 -261 -439 -392 -534 -536 -69 -107 -116 -214 -132 -307 -19 -115
-112 -103 797 -103 l795 0 0 145 0 145 -590 0 c-324 0 -590 4 -590 8 0 4 29
44 64 87 64 80 126 138 461 425 482 415 630 624 651 915 23 331 -206 622 -544
690 -92 18 -211 24 -312 15z"/>
<path d="M2400 3495 l0 -1215 160 0 160 0 2 573 3 572 628 3 627 2 0 -575 0
-575 160 0 160 0 0 1215 0 1215 -160 0 -160 0 0 -500 0 -500 -630 0 -630 0 0
500 0 500 -160 0 -160 0 0 -1215z"/>
<path d="M4822 3498 l3 -1213 425 -3 c710 -5 885 15 1081 120 147 78 263 246
303 440 64 311 -82 593 -364 704 l-69 27 47 30 c122 77 209 180 253 302 18 48
22 83 23 175 1 140 -23 225 -94 334 -90 138 -225 225 -415 267 -94 20 -131 22
-648 26 l-547 5 2 -1214z m1117 902 c156 -33 246 -130 272 -292 27 -164 -43
-303 -185 -369 -89 -41 -179 -49 -552 -49 l-334 0 0 366 0 366 373 -5 c224 -3
394 -10 426 -17z m56 -1020 c180 -46 286 -154 316 -324 29 -171 -51 -350 -188
-420 -117 -58 -124 -59 -570 -64 l-413 -4 0 417 0 417 403 -5 c277 -3 418 -8
452 -17z"/>
</g>
</svg>
